<svg width="18" height="18" viewBox="0 0 18 18" fill="none" xmlns="http://www.w3.org/2000/svg">
<path d="M13.875 14.625H4.125L1.875 16.875V4.125C1.875 2.8875 2.8875 1.875 4.125 1.875H13.875C15.1125 1.875 16.125 2.8875 16.125 4.125V12.375C16.125 13.6125 15.1125 14.625 13.875 14.625Z" fill="#009688"/>
<path d="M9 9.375C9.62132 9.375 10.125 8.87132 10.125 8.25C10.125 7.62868 9.62132 7.125 9 7.125C8.37868 7.125 7.875 7.62868 7.875 8.25C7.875 8.87132 8.37868 9.375 9 9.375Z" fill="white"/>
<path d="M12.75 9.375C13.3713 9.375 13.875 8.87132 13.875 8.25C13.875 7.62868 13.3713 7.125 12.75 7.125C12.1287 7.125 11.625 7.62868 11.625 8.25C11.625 8.87132 12.1287 9.375 12.75 9.375Z" fill="white"/>
<path d="M5.25 9.375C5.87132 9.375 6.375 8.87132 6.375 8.25C6.375 7.62868 5.87132 7.125 5.25 7.125C4.62868 7.125 4.125 7.62868 4.125 8.25C4.125 8.87132 4.62868 9.375 5.25 9.375Z" fill="white"/>
</svg>
