<svg width="20" height="20" viewBox="0 0 20 20" fill="none" xmlns="http://www.w3.org/2000/svg">
<path d="M2.5 10H10V11.25H2.5V10ZM1.25 6.875H7.5V8.125H1.25V6.875Z" fill="black" fill-opacity="0.5"/>
<path d="M18.6994 10.3788L16.8244 6.00375C16.7763 5.8913 16.6962 5.79546 16.5941 5.72812C16.492 5.66079 16.3723 5.62493 16.25 5.625H14.375V4.375C14.375 4.20924 14.3092 4.05027 14.192 3.93306C14.0748 3.81585 13.9158 3.75 13.75 3.75H3.75003V5H13.125V12.8475C12.8402 13.0129 12.591 13.233 12.3917 13.4952C12.1924 13.7573 12.0469 14.0564 11.9638 14.375H8.03628C7.88416 13.7858 7.52238 13.2724 7.01877 12.9309C6.51516 12.5894 5.90428 12.4433 5.30065 12.5199C4.69702 12.5966 4.14207 12.8908 3.73982 13.3474C3.33758 13.8039 3.11566 14.3915 3.11566 15C3.11566 15.6085 3.33758 16.1961 3.73982 16.6526C4.14207 17.1092 4.69702 17.4034 5.30065 17.4801C5.90428 17.5567 6.51516 17.4106 7.01877 17.0691C7.52238 16.7276 7.88416 16.2142 8.03628 15.625H11.9638C12.0997 16.1614 12.4107 16.6371 12.8474 16.977C13.2841 17.3168 13.8217 17.5013 14.375 17.5013C14.9284 17.5013 15.4659 17.3168 15.9027 16.977C16.3394 16.6371 16.6503 16.1614 16.7863 15.625H18.125C18.2908 15.625 18.4498 15.5592 18.567 15.4419C18.6842 15.3247 18.75 15.1658 18.75 15V10.625C18.7501 10.5403 18.7328 10.4565 18.6994 10.3788ZM5.62503 16.25C5.3778 16.25 5.13612 16.1767 4.93056 16.0393C4.725 15.902 4.56479 15.7068 4.47018 15.4784C4.37557 15.2499 4.35081 14.9986 4.39904 14.7561C4.44728 14.5137 4.56633 14.2909 4.74114 14.1161C4.91596 13.9413 5.13869 13.8222 5.38116 13.774C5.62364 13.7258 5.87497 13.7505 6.10338 13.8451C6.33179 13.9398 6.52701 14.1 6.66436 14.3055C6.80171 14.5111 6.87503 14.7528 6.87503 15C6.8747 15.3314 6.74289 15.6492 6.50854 15.8835C6.2742 16.1179 5.95645 16.2497 5.62503 16.25ZM14.375 6.875H15.8375L17.1775 10H14.375V6.875ZM14.375 16.25C14.1278 16.25 13.8861 16.1767 13.6806 16.0393C13.475 15.902 13.3148 15.7068 13.2202 15.4784C13.1256 15.2499 13.1008 14.9986 13.149 14.7561C13.1973 14.5137 13.3163 14.2909 13.4911 14.1161C13.666 13.9413 13.8887 13.8222 14.1312 13.774C14.3736 13.7258 14.625 13.7505 14.8534 13.8451C15.0818 13.9398 15.277 14.1 15.4144 14.3055C15.5517 14.5111 15.625 14.7528 15.625 15C15.6247 15.3314 15.4929 15.6492 15.2585 15.8835C15.0242 16.1179 14.7064 16.2497 14.375 16.25ZM17.5 14.375H16.7863C16.6486 13.8396 16.3372 13.3651 15.9008 13.0258C15.4644 12.6865 14.9278 12.5015 14.375 12.5V11.25H17.5V14.375Z" fill="black" fill-opacity="0.5"/>
</svg>
