<svg width="72" height="72" viewBox="0 0 72 72" fill="none" xmlns="http://www.w3.org/2000/svg">
<path d="M36 0C16.1502 0 0 16.1502 0 36C0 55.8498 16.1502 72 36 72C55.8498 72 72 55.8498 72 36C72 16.1502 55.8498 0 36 0ZM36 5.53846C52.8563 5.53846 66.4615 19.1437 66.4615 36C66.4615 52.8563 52.8563 66.4615 36 66.4615C19.1437 66.4615 5.53846 52.8563 5.53846 36C5.53846 19.1437 19.1437 5.53846 36 5.53846ZM25.5323 21.5446L21.5446 25.5323L32.0234 36L21.5502 46.4677L25.5378 50.4554L36 39.9794L46.4677 50.4471L50.4554 46.4677L39.9794 36L50.4471 25.5323L46.4677 21.5446L36 32.0234L25.5323 21.5502V21.5446Z" fill="#F05572"/>
</svg>
