<svg width="17" height="16" viewBox="0 0 17 16" fill="none" xmlns="http://www.w3.org/2000/svg">
<path d="M15.158 3.36844H12.6316V1.68422C12.6316 0.755372 11.8763 0 10.9474 0H5.89477C4.96592 0 4.21055 0.755372 4.21055 1.68422V3.36844H1.68422C0.755372 3.36844 0 4.12381 0 5.05266V14.3159C0 15.2447 0.755372 16.0001 1.68422 16.0001H15.158C16.0868 16.0001 16.8422 15.2447 16.8422 14.3159V5.05266C16.8422 4.12381 16.0868 3.36844 15.158 3.36844ZM11.7895 5.05266V14.3159H5.05266V5.05266H11.7895ZM10.9474 1.68422V3.36844H5.89477V1.68422H10.9474ZM1.68422 5.05266H3.36844V14.3159H1.68422V5.05266ZM13.4738 14.3159V5.05266H15.158L15.1588 14.3159H13.4738Z" fill="#808080"/>
</svg>
