<svg width="8" height="7" viewBox="0 0 8 7" fill="none" xmlns="http://www.w3.org/2000/svg">
<path d="M6.90909 2.93963C6.81265 2.93963 6.72016 2.97835 6.65196 3.04726C6.58377 3.11617 6.54545 3.20963 6.54545 3.30709V5.87927C6.54545 5.97672 6.50714 6.07018 6.43895 6.13909C6.37075 6.20801 6.27826 6.24672 6.18182 6.24672H1.09091C0.994467 6.24672 0.901974 6.20801 0.833779 6.13909C0.765584 6.07018 0.727273 5.97672 0.727273 5.87927V2.93963C0.727273 2.84218 0.765584 2.74871 0.833779 2.6798C0.901974 2.61089 0.994467 2.57218 1.09091 2.57218H1.81818C1.89748 2.57636 1.97595 2.5542 2.04161 2.50908C2.10727 2.46396 2.15652 2.39837 2.18182 2.32231L2.37818 1.71969C2.40258 1.6467 2.44905 1.58331 2.51104 1.53847C2.57303 1.49363 2.6474 1.46962 2.72364 1.46982H4.72727C4.82372 1.46982 4.91621 1.4311 4.9844 1.36219C5.0526 1.29328 5.09091 1.19982 5.09091 1.10236C5.09091 1.00491 5.0526 0.911444 4.9844 0.842533C4.91621 0.773622 4.82372 0.734908 4.72727 0.734908H2.70545C2.47693 0.73534 2.2543 0.808283 2.06901 0.94344C1.88371 1.0786 1.74509 1.26915 1.67273 1.48819L1.55636 1.85564H1.09091C0.801582 1.85564 0.524105 1.97178 0.31952 2.17852C0.114935 2.38525 0 2.66564 0 2.95801V5.89764C0 6.19 0.114935 6.47039 0.31952 6.67713C0.524105 6.88386 0.801582 7 1.09091 7H6.18182C6.47115 7 6.74862 6.88386 6.95321 6.67713C7.15779 6.47039 7.27273 6.19 7.27273 5.89764V3.32546C7.27519 3.27568 7.26761 3.22592 7.25045 3.17919C7.23328 3.13247 7.20688 3.08976 7.17287 3.05367C7.13885 3.01758 7.09793 2.98886 7.05258 2.96925C7.00723 2.94965 6.95841 2.93957 6.90909 2.93963ZM3.63636 2.57218C3.34868 2.57218 3.06746 2.65838 2.82826 2.81989C2.58906 2.98139 2.40263 3.21095 2.29254 3.47952C2.18245 3.74809 2.15364 4.04363 2.20977 4.32874C2.26589 4.61386 2.40442 4.87575 2.60784 5.08131C2.81127 5.28687 3.07044 5.42686 3.3526 5.48357C3.63475 5.54028 3.92721 5.51118 4.19299 5.39993C4.45878 5.28868 4.68595 5.10029 4.84577 4.85858C5.0056 4.61687 5.09091 4.3327 5.09091 4.042C5.09091 3.65218 4.93766 3.27832 4.66488 3.00268C4.3921 2.72703 4.02213 2.57218 3.63636 2.57218ZM3.63636 4.7769C3.49252 4.7769 3.35191 4.7338 3.23231 4.65305C3.11271 4.5723 3.0195 4.45752 2.96445 4.32323C2.90941 4.18895 2.895 4.04118 2.92307 3.89862C2.95113 3.75606 3.02039 3.62512 3.1221 3.52234C3.22382 3.41956 3.3534 3.34956 3.49448 3.32121C3.63556 3.29285 3.78179 3.3074 3.91468 3.36303C4.04757 3.41865 4.16116 3.51285 4.24107 3.6337C4.32098 3.75456 4.36364 3.89664 4.36364 4.042C4.36364 4.2369 4.28701 4.42383 4.15062 4.56165C4.01423 4.69948 3.82925 4.7769 3.63636 4.7769ZM7.63636 0.734908H7.27273V0.367454C7.27273 0.269999 7.23442 0.176536 7.16622 0.107625C7.09803 0.0387138 7.00553 0 6.90909 0C6.81265 0 6.72016 0.0387138 6.65196 0.107625C6.58377 0.176536 6.54545 0.269999 6.54545 0.367454V0.734908H6.18182C6.08538 0.734908 5.99288 0.773622 5.92469 0.842533C5.85649 0.911444 5.81818 1.00491 5.81818 1.10236C5.81818 1.19982 5.85649 1.29328 5.92469 1.36219C5.99288 1.4311 6.08538 1.46982 6.18182 1.46982H6.54545V1.83727C6.54545 1.93473 6.58377 2.02819 6.65196 2.0971C6.72016 2.16601 6.81265 2.20472 6.90909 2.20472C7.00553 2.20472 7.09803 2.16601 7.16622 2.0971C7.23442 2.02819 7.27273 1.93473 7.27273 1.83727V1.46982H7.63636C7.73281 1.46982 7.8253 1.4311 7.89349 1.36219C7.96169 1.29328 8 1.19982 8 1.10236C8 1.00491 7.96169 0.911444 7.89349 0.842533C7.8253 0.773622 7.73281 0.734908 7.63636 0.734908Z" fill="white"/>
</svg>
