<svg width="30" height="30" viewBox="0 0 30 30" fill="none" xmlns="http://www.w3.org/2000/svg">
<circle cx="15" cy="15" r="13.5" fill="white" stroke="#1456F1" stroke-width="3"/>
<path d="M16.5018 9C16.644 9 16.7803 9.05644 16.8807 9.15692C16.9812 9.25739 17.0377 9.39366 17.0377 9.53575V10.0715H19.7169V13.286H18.635L20.1065 17.3282C20.2114 17.6001 20.2596 17.8906 20.2484 18.1818C20.2372 18.4731 20.1666 18.7589 20.0411 19.022C19.9156 19.285 19.7377 19.5197 19.5183 19.7117C19.299 19.9036 19.0428 20.0489 18.7654 20.1384C18.488 20.228 18.1952 20.2601 17.905 20.2327C17.6148 20.2052 17.3332 20.1189 17.0775 19.979C16.8218 19.8391 16.5973 19.6484 16.4178 19.4188C16.2383 19.1892 16.1075 18.9253 16.0335 18.6434H13.7551C13.6333 19.1136 13.3555 19.5286 12.967 19.8203C12.5786 20.112 12.1026 20.2632 11.617 20.2491C11.1314 20.235 10.665 20.0565 10.2941 19.7428C9.92321 19.4291 9.66985 18.9988 9.5755 18.5224C9.40185 18.4317 9.25638 18.2951 9.15492 18.1276C9.05346 17.96 8.99987 17.7678 9 17.5719V12.2145C9 12.0724 9.05646 11.9361 9.15695 11.8356C9.25744 11.7352 9.39373 11.6787 9.53585 11.6787H13.2868C13.4289 11.6787 13.5652 11.7352 13.6657 11.8356C13.7662 11.9361 13.8226 12.0724 13.8226 12.2145V14.8932C13.8226 15.0353 13.8791 15.1716 13.9796 15.272C14.08 15.3725 14.2163 15.429 14.3585 15.429H15.4302C15.5723 15.429 15.7086 15.3725 15.8091 15.272C15.9095 15.1716 15.966 15.0353 15.966 14.8932V10.0715H14.3585V9H16.5018ZM18.1094 17.0362C17.8815 17.0363 17.6595 17.109 17.4758 17.2438C17.292 17.3785 17.156 17.5684 17.0875 17.7857C17.0191 18.003 17.0217 18.2365 17.0949 18.4523C17.1682 18.668 17.3084 18.8548 17.4951 18.9855C17.6818 19.1162 17.9053 19.1839 18.1332 19.1789C18.361 19.1739 18.5814 19.0964 18.7622 18.9577C18.943 18.819 19.0748 18.6263 19.1386 18.4075C19.2024 18.1887 19.1947 17.9554 19.1168 17.7412L19.1082 17.7177C19.0297 17.5168 18.8923 17.3442 18.7141 17.2226C18.5359 17.101 18.3251 17.0361 18.1094 17.0362ZM11.6792 17.0362C11.395 17.0362 11.1224 17.1491 10.9214 17.35C10.7204 17.551 10.6075 17.8235 10.6075 18.1077C10.6075 18.3919 10.7204 18.6644 10.9214 18.8654C11.1224 19.0663 11.395 19.1792 11.6792 19.1792C11.9635 19.1792 12.236 19.0663 12.437 18.8654C12.638 18.6644 12.7509 18.3919 12.7509 18.1077C12.7509 17.8235 12.638 17.551 12.437 17.35C12.236 17.1491 11.9635 17.0362 11.6792 17.0362ZM12.7509 12.7502H10.0717V13.8217H12.7509V12.7502ZM18.6452 11.143H17.0377V12.2145H18.6452V11.143Z" fill="#1456F1"/>
</svg>
