<svg width="18" height="20" viewBox="0 0 18 20" fill="none" xmlns="http://www.w3.org/2000/svg">
<path d="M8.74952 20C9.41253 20 10.0484 19.7366 10.5172 19.2678C10.986 18.799 11.2494 18.1631 11.2494 17.5001H6.24966C6.24966 18.1631 6.51304 18.799 6.98185 19.2678C7.45067 19.7366 8.08652 20 8.74952 20ZM9.9932 1.37477C10.0106 1.20097 9.99147 1.02545 9.93691 0.859513C9.88235 0.693581 9.79362 0.540926 9.67644 0.411394C9.55926 0.281861 9.41623 0.178327 9.25658 0.107468C9.09692 0.0366098 8.92419 0 8.74952 0C8.57485 0 8.40212 0.0366098 8.24246 0.107468C8.08281 0.178327 7.93978 0.281861 7.8226 0.411394C7.70542 0.540926 7.61669 0.693581 7.56213 0.859513C7.50757 1.02545 7.48839 1.20097 7.50584 1.37477C6.09306 1.66213 4.82301 2.42891 3.91074 3.54528C2.99847 4.66164 2.50005 6.05898 2.49986 7.50068C2.49986 8.87311 1.8749 15.0003 0 16.2502H17.499C15.6241 15.0003 14.9992 8.87311 14.9992 7.50068C14.9992 4.47585 12.8493 1.95099 9.9932 1.37477Z" fill="#BFBFBF" fill-opacity="0.7"/>
</svg>
