<svg width="18" height="12" viewBox="0 0 18 12" fill="none" xmlns="http://www.w3.org/2000/svg">
<path d="M16.2 0H1.8C0.8073 0 0 0.67275 0 1.5V10.5C0 11.3273 0.8073 12 1.8 12H16.2C17.1927 12 18 11.3273 18 10.5V1.5C18 0.67275 17.1927 0 16.2 0ZM9.45 9C8.85326 9 8.28097 8.80246 7.85901 8.45082C7.43705 8.09919 7.2 7.62228 7.2 7.125C7.2 6.62772 7.43705 6.15081 7.85901 5.79917C8.28097 5.44754 8.85326 5.25 9.45 5.25C9.9384 5.25094 10.4128 5.38589 10.8 5.634C10.2564 5.976 9.9 6.51375 9.9 7.125C9.9 7.73625 10.2564 8.274 10.8 8.616C10.4128 8.86411 9.9384 8.99906 9.45 9ZM13.05 9C12.4533 9 11.881 8.80246 11.459 8.45082C11.0371 8.09919 10.8 7.62228 10.8 7.125C10.8 6.62772 11.0371 6.15081 11.459 5.79917C11.881 5.44754 12.4533 5.25 13.05 5.25C13.6467 5.25 14.219 5.44754 14.641 5.79917C15.0629 6.15081 15.3 6.62772 15.3 7.125C15.3 7.62228 15.0629 8.09919 14.641 8.45082C14.219 8.80246 13.6467 9 13.05 9Z" fill="#1456F1"/>
</svg>
