<svg width="44" height="44" viewBox="0 0 44 44" fill="none" xmlns="http://www.w3.org/2000/svg">
<g filter="url(#filter0_d_1_3259)">
<circle cx="22" cy="18" r="12" fill="white"/>
</g>
<path fill-rule="evenodd" clip-rule="evenodd" d="M25.5004 17.7503C25.5004 17.684 25.4741 17.6204 25.4272 17.5735C25.3803 17.5267 25.3168 17.5003 25.2504 17.5003H19.3539L20.9274 15.9273C20.9507 15.9041 20.9691 15.8765 20.9817 15.8461C20.9943 15.8157 21.0008 15.7832 21.0008 15.7503C21.0008 15.7174 20.9943 15.6849 20.9817 15.6545C20.9691 15.6242 20.9507 15.5966 20.9274 15.5733C20.9042 15.5501 20.8766 15.5316 20.8462 15.5191C20.8159 15.5065 20.7833 15.5 20.7504 15.5C20.7176 15.5 20.685 15.5065 20.6547 15.5191C20.6243 15.5316 20.5967 15.5501 20.5734 15.5733L18.5734 17.5733C18.5502 17.5965 18.5317 17.6241 18.5191 17.6545C18.5065 17.6849 18.5 17.7174 18.5 17.7503C18.5 17.7832 18.5065 17.8158 18.5191 17.8461C18.5317 17.8765 18.5502 17.9041 18.5734 17.9273L20.5734 19.9273C20.5967 19.9506 20.6243 19.969 20.6547 19.9816C20.685 19.9942 20.7176 20.0006 20.7504 20.0006C20.7833 20.0006 20.8159 19.9942 20.8462 19.9816C20.8766 19.969 20.9042 19.9506 20.9274 19.9273C20.9507 19.9041 20.9691 19.8765 20.9817 19.8461C20.9943 19.8157 21.0008 19.7832 21.0008 19.7503C21.0008 19.7174 20.9943 19.6849 20.9817 19.6545C20.9691 19.6242 20.9507 19.5966 20.9274 19.5733L19.3539 18.0003H25.2504C25.3168 18.0003 25.3803 17.974 25.4272 17.9271C25.4741 17.8802 25.5004 17.8166 25.5004 17.7503Z" fill="black"/>
<defs>
<filter id="filter0_d_1_3259" x="0" y="0" width="44" height="44" filterUnits="userSpaceOnUse" color-interpolation-filters="sRGB">
<feFlood flood-opacity="0" result="BackgroundImageFix"/>
<feColorMatrix in="SourceAlpha" type="matrix" values="0 0 0 0 0 0 0 0 0 0 0 0 0 0 0 0 0 0 127 0" result="hardAlpha"/>
<feOffset dy="4"/>
<feGaussianBlur stdDeviation="5"/>
<feComposite in2="hardAlpha" operator="out"/>
<feColorMatrix type="matrix" values="0 0 0 0 0 0 0 0 0 0 0 0 0 0 0 0 0 0 0.25 0"/>
<feBlend mode="normal" in2="BackgroundImageFix" result="effect1_dropShadow_1_3259"/>
<feBlend mode="normal" in="SourceGraphic" in2="effect1_dropShadow_1_3259" result="shape"/>
</filter>
</defs>
</svg>
