<svg width="17" height="17" viewBox="0 0 17 17" fill="none" xmlns="http://www.w3.org/2000/svg">
<path d="M11.334 12.0769L12.7979 10.613C12.9951 10.4183 13.2445 10.285 13.516 10.2294C13.7874 10.1737 14.0692 10.198 14.3271 10.2994L16.1112 11.0117C16.3718 11.1175 16.5953 11.298 16.7535 11.5306C16.9116 11.7632 16.9974 12.0374 17 12.3187V15.5863C16.9985 15.7776 16.9583 15.9666 16.8818 16.142C16.8052 16.3174 16.694 16.4755 16.5548 16.6068C16.4156 16.738 16.2513 16.8398 16.0717 16.9059C15.8922 16.972 15.7011 17.001 15.51 16.9913C3.00832 16.2136 0.485766 5.62676 0.00870311 1.57499C-0.0134425 1.37602 0.00679136 1.17461 0.0680734 0.984025C0.129355 0.793436 0.230297 0.617982 0.364257 0.469206C0.498217 0.32043 0.66216 0.201703 0.8453 0.120837C1.02844 0.0399711 1.22663 -0.00120191 1.42682 2.67084e-05H4.58328C4.86495 0.000860449 5.13993 0.0859421 5.37285 0.244328C5.60577 0.402715 5.78598 0.627162 5.8903 0.888802L6.60263 2.67289C6.70736 2.92976 6.73408 3.2118 6.67945 3.48377C6.62482 3.75574 6.49127 4.00559 6.29548 4.2021L4.83162 5.66597C4.83162 5.66597 5.67464 11.3711 11.334 12.0769Z" fill="#1456F1"/>
</svg>
