<svg width="20" height="20" viewBox="0 0 20 20" fill="none" xmlns="http://www.w3.org/2000/svg">
<g clip-path="url(#clip0_1_1134)">
<path d="M10 19.0445C10.35 19.0364 10.6858 18.9049 10.9481 18.6731C11.2104 18.4413 11.3823 18.1241 11.4333 17.7778H8.51111C8.56359 18.1336 8.74351 18.4581 9.01739 18.6911C9.29126 18.9241 9.64046 19.0497 10 19.0445Z" fill="#F05572"/>
<path d="M18.25 15.6278L18.0611 15.4611C17.5253 14.9836 17.0562 14.4361 16.6667 13.8333C16.2412 13.0014 15.9863 12.0929 15.9167 11.1611V8.41664C15.9144 8.08328 15.8847 7.75067 15.8278 7.4222C14.8867 7.22877 14.0414 6.7161 13.435 5.97096C12.8286 5.22583 12.4983 4.29403 12.5 3.33331V2.98331C11.92 2.69786 11.2968 2.51015 10.6556 2.42775V1.72775C10.6556 1.53105 10.5774 1.3424 10.4383 1.20331C10.2993 1.06422 10.1106 0.986084 9.9139 0.986084C9.7172 0.986084 9.52855 1.06422 9.38947 1.20331C9.25038 1.3424 9.17224 1.53105 9.17224 1.72775V2.45553C7.73652 2.65806 6.42255 3.37316 5.47291 4.46882C4.52327 5.56449 4.00208 6.96672 4.00557 8.41664V11.1611C3.93599 12.0929 3.681 13.0014 3.25557 13.8333C2.87273 14.4346 2.41123 14.9821 1.88335 15.4611L1.69446 15.6278V17.1944H18.25V15.6278Z" fill="#F05572"/>
<path d="M16.6667 6.1111C18.2008 6.1111 19.4445 4.86744 19.4445 3.33332C19.4445 1.7992 18.2008 0.555542 16.6667 0.555542C15.1326 0.555542 13.8889 1.7992 13.8889 3.33332C13.8889 4.86744 15.1326 6.1111 16.6667 6.1111Z" fill="#F05572"/>
</g>
<defs>
<clipPath id="clip0_1_1134">
<rect width="20" height="20" fill="white"/>
</clipPath>
</defs>
</svg>
