<svg width="14" height="20" viewBox="0 0 14 20" fill="none" xmlns="http://www.w3.org/2000/svg">
<path d="M2.36322 0.438815L3.43924 0.094811C4.44825 -0.227193 5.52626 0.293813 5.95827 1.31183L6.81828 3.33985C7.19228 4.22286 6.98428 5.26187 6.30427 5.90788L4.40925 7.7059C4.52625 8.78192 4.88826 9.84093 5.49426 10.8829C6.06974 11.8911 6.84165 12.7735 7.76429 13.478L10.0403 12.718C10.9023 12.431 11.8423 12.762 12.3703 13.539L13.6034 15.349C14.2184 16.253 14.1074 17.499 13.3444 18.265L12.5273 19.086C11.7133 19.9031 10.5503 20.2001 9.47531 19.8641C6.93528 19.072 4.60225 16.721 2.47223 12.811C0.3392 8.89492 -0.413809 5.57088 0.214198 2.84284C0.478202 1.69483 1.29521 0.779819 2.36322 0.438815Z" fill="#BFBFBF" fill-opacity="0.7"/>
</svg>
