<svg width="99" height="99" viewBox="0 0 99 99" fill="none" xmlns="http://www.w3.org/2000/svg">
<path fill-rule="evenodd" clip-rule="evenodd" d="M49.4969 0.0860923C76.8365 0.0860923 98.9938 22.2241 98.9938 49.54C98.9938 57.2883 97.2213 64.6369 94.0331 71.1491C93.8546 70.6633 93.5468 70.0422 93.1468 69.1998L90.9311 64.7291C89.4662 61.2731 87.6075 58.0447 86.2349 54.5887L82.5113 46.7051C82.2466 46.127 82.2035 46.127 81.9327 45.5551C81.7112 45.1124 81.5327 44.8049 81.3542 44.4052L76.0364 34.8428C75.7287 34.4431 75.6364 34.4431 75.3717 34.0003C73.4206 31.1654 70.1894 28.9947 66.3734 29.9294C64.687 30.3721 63.536 31.1716 62.2066 32.2293C59.3692 34.4431 56.0025 41.3489 54.8947 44.934L54.0515 47.3262C54.0084 47.5045 53.9161 47.812 53.8299 47.9903C53.6514 48.4761 53.7868 48.0334 53.5652 48.5684C53.3437 49.0972 53.3006 49.1464 53.2575 49.7613C51.8419 48.6975 50.2416 38.6493 49.8908 36.5216C49.6262 34.7075 49.3123 33.2009 48.4752 31.6943C47.1027 29.3452 44.9301 28.2383 42.185 27.9308C38.5044 27.5311 35.9379 31.0732 34.6946 33.9942C34.3869 34.7013 34.1653 35.1872 33.8945 36.0296C33.5868 37.0504 33.4083 37.0504 33.1867 38.1081L28.9337 51.7476C28.7552 52.2765 28.7983 52.3257 28.6691 52.7684C28.4906 53.3895 28.4044 53.3895 28.2259 53.8323C28.0044 54.3611 28.0905 54.1398 27.9613 54.8531C27.7828 55.6033 27.5612 55.917 27.3396 56.8455L25.9671 60.8304C25.8317 61.3162 25.7886 61.6728 25.6594 62.0234C25.3516 62.9519 25.1301 64.3724 24.3299 64.5938C23.6221 64.065 24.0653 64.2863 23.7514 63.2225L20.3416 51.1327C20.2062 50.5546 20.1631 49.8474 20.077 49.4477C19.6338 47.1909 18.9691 45.4629 18.6121 43.163C18.2121 40.7278 17.4181 35.9435 16.7041 33.4653L14.4884 20.1825C14.2237 18.9895 14.1807 18.0548 13.8237 16.9971C13.6452 16.4682 13.559 15.9332 13.4667 15.4474C22.5143 5.93422 35.2732 0 49.4108 0L49.4969 0.0860923ZM85.3486 83.6387C76.3503 93.115 63.5914 99 49.4969 99C22.1573 99 0 76.862 0 49.5461C0 43.8763 0.972459 38.4341 2.70196 33.3854C2.78813 34.0926 2.92353 34.7997 3.05894 35.4639L8.68443 60.6151C8.86292 61.3654 8.94908 61.8081 9.17066 62.5215L12.4942 72.3052L15.4609 78.1472C15.8609 78.7253 15.9471 78.8974 16.3472 79.4324C17.5412 81.1604 18.2059 81.5602 19.6277 82.7962C21.3572 84.3028 24.1022 85.01 26.4533 84.5672C27.4258 84.3889 28.9768 83.7248 29.7339 83.282C32.2573 81.7754 33.2359 80.2688 34.473 78.1042C34.7377 77.6614 34.6515 77.8828 34.9162 77.44L37.3535 71.02C37.6182 70.1775 37.7105 70.1775 37.932 69.4703C38.1536 68.8492 38.1536 68.3634 38.4183 67.7854C38.6398 67.2565 38.5537 67.564 38.726 67.0352C38.8614 66.7277 38.9476 66.371 39.0338 66.0635C39.2553 65.3994 39.3907 65.2211 39.5631 64.4278C39.9631 62.9212 40.7571 61.2424 41.2495 59.2008L41.9573 60.0002C42.0004 60.0432 42.0004 60.0863 42.0435 60.1355C43.6806 63.5423 43.5083 63.3209 45.6317 66.9122C46.1179 67.7546 48.426 70.7187 49.3123 71.4259C49.7554 71.7825 50.0201 71.8686 50.4632 72.1761C52.1927 73.3691 54.9378 74.0332 57.1104 73.0616C61.0987 71.3336 62.2928 69.1629 63.536 65.2703L67.0381 52.4302C67.3458 51.0589 67.7028 50.5239 67.9675 49.2878C69.2108 50.1303 68.7676 50.3087 70.0478 52.5655L74.3008 61.8635C74.5654 62.3923 74.6085 62.3493 74.787 62.8843L76.8673 67.2688C77.0458 67.6255 77.1751 67.976 77.3536 68.2896L78.4614 70.4174C78.6399 70.8171 78.6399 71.0815 78.8615 71.5243L84.3577 82.1936C84.7578 82.993 84.887 83.4788 85.4225 83.4788L85.3486 83.6387Z" fill="white"/>
</svg>
