<svg width="18" height="17" viewBox="0 0 18 17" fill="none" xmlns="http://www.w3.org/2000/svg">
<path d="M17.6265 8.36355L9.95488 0.695933L9.44067 0.181714C9.3235 0.0653232 9.16506 0 8.99991 0C8.83476 0 8.67631 0.0653232 8.55915 0.181714L0.373338 8.36355C0.253283 8.48314 0.158401 8.62557 0.0942938 8.78242C0.0301864 8.93928 -0.00184767 9.1074 8.22942e-05 9.27684C0.0080239 9.9757 0.589747 10.5336 1.28861 10.5336H2.1324V17H15.8674V10.5336H16.7291C17.0686 10.5336 17.3882 10.4006 17.6285 10.1603C17.7468 10.0424 17.8405 9.90223 17.9042 9.74784C17.9679 9.59346 18.0004 9.42797 17.9997 9.26095C17.9997 8.92344 17.8667 8.60379 17.6265 8.36355ZM10.1117 15.5706H7.88808V11.5203H10.1117V15.5706ZM14.4379 9.10411V15.5706H11.3824V11.0438C11.3824 10.6051 11.027 10.2497 10.5882 10.2497H7.41159C6.97281 10.2497 6.61743 10.6051 6.61743 11.0438V15.5706H3.56189V9.10411H1.65591L9.00189 1.76408L9.46052 2.22271L16.3459 9.10411H14.4379Z" fill="#808080"/>
</svg>
