<svg width="18" height="18" viewBox="0 0 18 18" fill="none" xmlns="http://www.w3.org/2000/svg">
<path d="M12.7518 1.5C12.894 1.5 13.0303 1.55644 13.1307 1.65692C13.2312 1.75739 13.2877 1.89366 13.2877 2.03575V2.57149H15.9669V5.78597H14.885L16.3565 9.82818C16.4614 10.1001 16.5096 10.3906 16.4984 10.6818C16.4872 10.9731 16.4166 11.2589 16.2911 11.522C16.1656 11.785 15.9877 12.0197 15.7683 12.2117C15.549 12.4036 15.2928 12.5489 15.0154 12.6384C14.738 12.728 14.4452 12.7601 14.155 12.7327C13.8648 12.7052 13.5832 12.6189 13.3275 12.479C13.0718 12.3391 12.8473 12.1484 12.6678 11.9188C12.4883 11.6892 12.3575 11.4253 12.2835 11.1434H10.0051C9.88331 11.6136 9.60545 12.0286 9.21702 12.3203C8.82859 12.612 8.35261 12.7632 7.86701 12.7491C7.38142 12.735 6.91499 12.5565 6.5441 12.2428C6.17321 11.9291 5.91985 11.4988 5.8255 11.0224C5.65185 10.9317 5.50638 10.7951 5.40492 10.6276C5.30346 10.46 5.24987 10.2678 5.25 10.0719V4.71448C5.25 4.57239 5.30646 4.43612 5.40695 4.33565C5.50744 4.23518 5.64373 4.17873 5.78585 4.17873H9.53677C9.67888 4.17873 9.81518 4.23518 9.91567 4.33565C10.0162 4.43612 10.0726 4.57239 10.0726 4.71448V7.39321C10.0726 7.5353 10.1291 7.67157 10.2296 7.77204C10.33 7.87251 10.4663 7.92896 10.6085 7.92896H11.6802C11.8223 7.92896 11.9586 7.87251 12.0591 7.77204C12.1595 7.67157 12.216 7.5353 12.216 7.39321V2.57149H10.6085V1.5H12.7518ZM14.3594 9.5362C14.1315 9.53627 13.9095 9.60897 13.7258 9.74376C13.542 9.87854 13.406 10.0684 13.3375 10.2857C13.2691 10.503 13.2717 10.7365 13.3449 10.9523C13.4182 11.168 13.5584 11.3548 13.7451 11.4855C13.9318 11.6162 14.1553 11.6839 14.3832 11.6789C14.611 11.6739 14.8314 11.5964 15.0122 11.4577C15.193 11.319 15.3248 11.1263 15.3886 10.9075C15.4524 10.6887 15.4447 10.4554 15.3668 10.2412L15.3582 10.2177C15.2797 10.0168 15.1423 9.84422 14.9641 9.72264C14.7859 9.60105 14.5751 9.53607 14.3594 9.5362ZM7.92923 9.5362C7.645 9.5362 7.37241 9.64909 7.17143 9.85003C6.97045 10.051 6.85754 10.3235 6.85754 10.6077C6.85754 10.8919 6.97045 11.1644 7.17143 11.3654C7.37241 11.5663 7.645 11.6792 7.92923 11.6792C8.21346 11.6792 8.48605 11.5663 8.68703 11.3654C8.88801 11.1644 9.00092 10.8919 9.00092 10.6077C9.00092 10.3235 8.88801 10.051 8.68703 9.85003C8.48605 9.64909 8.21346 9.5362 7.92923 9.5362ZM9.00092 5.25023H6.32169V6.32172H9.00092V5.25023ZM14.8952 3.64299H13.2877V4.71448H14.8952V3.64299Z" fill="#1456F1"/>
</svg>
