<svg width="17" height="17" viewBox="0 0 17 17" fill="none" xmlns="http://www.w3.org/2000/svg">
<path d="M8.43115 4.23645C8.01087 4.23645 7.60002 4.36108 7.25057 4.59458C6.90111 4.82808 6.62875 5.15995 6.46791 5.54825C6.30707 5.93654 6.26499 6.36381 6.34698 6.77602C6.42898 7.18823 6.63136 7.56687 6.92855 7.86405C7.22574 8.16124 7.60438 8.36363 8.01659 8.44562C8.4288 8.52761 8.85606 8.48553 9.24436 8.32469C9.63265 8.16386 9.96453 7.89149 10.198 7.54204C10.4315 7.19258 10.5562 6.78174 10.5562 6.36145C10.5555 5.79806 10.3314 5.25793 9.93305 4.85956C9.53467 4.46118 8.99454 4.23709 8.43115 4.23645ZM8.43115 7.42395C8.22101 7.42395 8.01559 7.36164 7.84086 7.24489C7.66613 7.12814 7.52995 6.9622 7.44953 6.76805C7.36911 6.5739 7.34807 6.36027 7.38907 6.15417C7.43007 5.94806 7.53126 5.75874 7.67985 5.61015C7.82845 5.46156 8.01776 5.36036 8.22387 5.31937C8.42997 5.27837 8.64361 5.29941 8.83775 5.37983C9.0319 5.46025 9.19784 5.59643 9.31459 5.77116C9.43134 5.94588 9.49365 6.15131 9.49365 6.36145C9.49333 6.64314 9.38128 6.91321 9.18209 7.11239C8.98291 7.31158 8.71285 7.42362 8.43115 7.42395Z" fill="#7B7C7F"/>
<path d="M12.5144 2.27486C11.5047 1.2655 10.157 0.665896 8.73132 0.591778C7.30561 0.517659 5.90298 0.974279 4.79414 1.87351C3.6853 2.77274 2.94886 4.05083 2.72695 5.46111C2.50503 6.87139 2.81338 8.31388 3.59248 9.51018L7.60697 15.6731C7.69631 15.8103 7.81846 15.9229 7.96235 16.0009C8.10624 16.0789 8.26732 16.1198 8.43099 16.1198C8.59466 16.1198 8.75574 16.0789 8.89963 16.0009C9.04352 15.9229 9.16567 15.8103 9.25501 15.6731L13.2696 9.51018C13.9925 8.40044 14.312 7.07592 14.1745 5.75864C14.037 4.44136 13.4509 3.21138 12.5144 2.27486ZM12.3794 8.93023L8.431 14.9915L4.48259 8.93023C3.27399 7.07487 3.53321 4.59194 5.09894 3.02614C5.53651 2.58856 6.05598 2.24146 6.6277 2.00464C7.19942 1.76782 7.81218 1.64593 8.431 1.64593C9.04983 1.64593 9.66259 1.76782 10.2343 2.00464C10.806 2.24146 11.3255 2.58856 11.7631 3.02614C13.3288 4.59194 13.588 7.07487 12.3794 8.93023Z" fill="#7B7C7F"/>
</svg>
