<svg width="197" height="293" viewBox="0 0 197 293" fill="none" xmlns="http://www.w3.org/2000/svg">
<path d="M34 256L136.716 148.698L194 58.702L169.802 41.8896L145.111 47.3289L114.494 32" stroke="#1456F1" stroke-width="3"/>
<path d="M125.55 12.4901C124.529 12.4655 123.524 12.2319 122.597 11.8036C121.67 11.3753 120.841 10.7615 120.16 10.0001C120.525 11.5541 120.313 13.188 119.563 14.5972C118.813 16.0065 117.576 17.095 116.083 17.6599C114.59 18.2248 112.942 18.2276 111.447 17.6678C109.952 17.108 108.712 16.0238 107.957 14.6171C107.202 13.2105 106.984 11.5774 107.344 10.022C107.704 8.46673 108.617 7.09531 109.913 6.16333C111.209 5.23134 112.8 4.80236 114.389 4.9563C115.978 5.11024 117.457 5.83661 118.55 7.00007C118.108 5.39755 118.217 3.69313 118.86 2.16007C117.07 1.29536 115.089 0.899148 113.104 1.00851C111.118 1.11788 109.193 1.72925 107.509 2.78538C105.824 3.84151 104.435 5.30787 103.472 7.04715C102.508 8.78644 102.002 10.7418 102 12.7301C102 17.4001 104.62 21.3101 106.54 24.1601L106.89 24.6801C108.8 27.4487 110.85 30.1188 113.03 32.6801L113.79 33.5701L114.55 32.6801C116.73 30.1186 118.779 27.4485 120.69 24.6801L121.04 24.1501C122.95 21.3001 125.57 17.4001 125.57 12.7301C125.56 12.6501 125.55 12.5701 125.55 12.4901Z" fill="#F05572"/>
<path d="M113.78 15.17C115.84 15.17 117.51 13.5 117.51 11.44C117.51 9.37994 115.84 7.70996 113.78 7.70996C111.72 7.70996 110.05 9.37994 110.05 11.44C110.05 13.5 111.72 15.17 113.78 15.17Z" fill="#F05572"/>
<path d="M125.78 10C128.541 10 130.78 7.76142 130.78 5C130.78 2.23858 128.541 0 125.78 0C123.019 0 120.78 2.23858 120.78 5C120.78 7.76142 123.019 10 125.78 10Z" fill="#F05572"/>
<circle cx="21" cy="272" r="21" fill="#1456F1" fill-opacity="0.5"/>
<circle cx="21" cy="272" r="10" fill="#1456F1"/>
<circle cx="99" cy="185" r="18.5" fill="white" stroke="#1456F1" stroke-width="3"/>
<path d="M101.002 177C101.192 177 101.374 177.075 101.508 177.209C101.642 177.343 101.717 177.525 101.717 177.714V178.429H105.289V182.715H103.847L105.809 188.104C105.948 188.467 106.013 188.854 105.998 189.242C105.983 189.631 105.889 190.012 105.721 190.363C105.554 190.713 105.317 191.026 105.024 191.282C104.732 191.538 104.39 191.732 104.021 191.851C103.651 191.971 103.26 192.013 102.873 191.977C102.486 191.94 102.111 191.825 101.77 191.639C101.429 191.452 101.13 191.198 100.89 190.892C100.651 190.586 100.477 190.234 100.378 189.858H97.3401C97.1777 190.485 96.8073 191.038 96.2894 191.427C95.7715 191.816 95.1368 192.018 94.4893 191.999C93.8419 191.98 93.22 191.742 92.7255 191.324C92.231 190.906 91.8931 190.332 91.7673 189.696C91.5358 189.576 91.3418 189.393 91.2066 189.17C91.0713 188.947 90.9998 188.69 91 188.429V181.286C91 181.097 91.0753 180.915 91.2093 180.781C91.3432 180.647 91.525 180.572 91.7145 180.572H96.7157C96.9052 180.572 97.0869 180.647 97.2209 180.781C97.3549 180.915 97.4302 181.097 97.4302 181.286V184.858C97.4302 185.047 97.5054 185.229 97.6394 185.363C97.7734 185.497 97.9551 185.572 98.1446 185.572H99.5735C99.763 185.572 99.9447 185.497 100.079 185.363C100.213 185.229 100.288 185.047 100.288 184.858V178.429H98.1446V177H101.002ZM103.146 187.715C102.842 187.715 102.546 187.812 102.301 187.992C102.056 188.171 101.875 188.425 101.783 188.714C101.692 189.004 101.696 189.315 101.793 189.603C101.891 189.891 102.078 190.14 102.327 190.314C102.576 190.488 102.874 190.579 103.178 190.572C103.481 190.565 103.775 190.462 104.016 190.277C104.257 190.092 104.433 189.835 104.518 189.543C104.603 189.252 104.593 188.94 104.489 188.655L104.478 188.624C104.373 188.356 104.19 188.126 103.952 187.964C103.715 187.801 103.434 187.715 103.146 187.715ZM94.5723 187.715C94.1933 187.715 93.8299 187.865 93.5619 188.133C93.2939 188.401 93.1434 188.765 93.1434 189.144C93.1434 189.522 93.2939 189.886 93.5619 190.154C93.8299 190.422 94.1933 190.572 94.5723 190.572C94.9513 190.572 95.3147 190.422 95.5827 190.154C95.8507 189.886 96.0012 189.522 96.0012 189.144C96.0012 188.765 95.8507 188.401 95.5827 188.133C95.3147 187.865 94.9513 187.715 94.5723 187.715ZM96.0012 182H92.4289V183.429H96.0012V182ZM103.86 179.857H101.717V181.286H103.86V179.857Z" fill="#1456F1"/>
<rect x="37" y="246.317" width="9" height="3.90439" transform="rotate(-44.5764 37 246.317)" fill="#E6E4E0"/>
<rect x="38.9873" y="248.331" width="9" height="3.69201" transform="rotate(-44.5764 38.9873 248.331)" fill="white"/>
</svg>
