<svg width="22" height="20" viewBox="0 0 22 20" fill="none" xmlns="http://www.w3.org/2000/svg">
<path d="M21.4315 9.37629C21.4315 14.5547 16.6335 18.7526 10.7158 18.7526C9.65443 18.754 8.5975 18.6162 7.57202 18.3427C6.78977 18.7392 4.99354 19.5 1.9717 19.9956C1.70381 20.0385 1.50021 19.7599 1.60602 19.5107C2.0802 18.3909 2.50883 16.8988 2.63742 15.5378C0.996565 13.8903 0 11.7338 0 9.37629C0 4.1979 4.79798 0 10.7158 0C16.6335 0 21.4315 4.1979 21.4315 9.37629ZM6.69735 9.37629C6.69735 9.02104 6.55623 8.68034 6.30503 8.42914C6.05383 8.17794 5.71313 8.03682 5.35788 8.03682C5.00263 8.03682 4.66193 8.17794 4.41073 8.42914C4.15953 8.68034 4.01841 9.02104 4.01841 9.37629C4.01841 9.73154 4.15953 10.0722 4.41073 10.3234C4.66193 10.5746 5.00263 10.7158 5.35788 10.7158C5.71313 10.7158 6.05383 10.5746 6.30503 10.3234C6.55623 10.0722 6.69735 9.73154 6.69735 9.37629ZM12.0552 9.37629C12.0552 9.02104 11.9141 8.68034 11.6629 8.42914C11.4117 8.17794 11.071 8.03682 10.7158 8.03682C10.3605 8.03682 10.0198 8.17794 9.76861 8.42914C9.51741 8.68034 9.37629 9.02104 9.37629 9.37629C9.37629 9.73154 9.51741 10.0722 9.76861 10.3234C10.0198 10.5746 10.3605 10.7158 10.7158 10.7158C11.071 10.7158 11.4117 10.5746 11.6629 10.3234C11.9141 10.0722 12.0552 9.73154 12.0552 9.37629ZM16.0736 10.7158C16.4289 10.7158 16.7696 10.5746 17.0208 10.3234C17.272 10.0722 17.4131 9.73154 17.4131 9.37629C17.4131 9.02104 17.272 8.68034 17.0208 8.42914C16.7696 8.17794 16.4289 8.03682 16.0736 8.03682C15.7184 8.03682 15.3777 8.17794 15.1265 8.42914C14.8753 8.68034 14.7342 9.02104 14.7342 9.37629C14.7342 9.73154 14.8753 10.0722 15.1265 10.3234C15.3777 10.5746 15.7184 10.7158 16.0736 10.7158Z" fill="#7A7C7F"/>
</svg>
