<svg width="12" height="12" viewBox="0 0 12 12" fill="none" xmlns="http://www.w3.org/2000/svg">
<path d="M5.95129 2.99048C5.65462 2.99048 5.36461 3.07845 5.11794 3.24327C4.87127 3.4081 4.67901 3.64236 4.56548 3.91645C4.45194 4.19054 4.42224 4.49214 4.48012 4.78311C4.53799 5.07409 4.68086 5.34136 4.89063 5.55114C5.10041 5.76092 5.36769 5.90378 5.65866 5.96166C5.94963 6.01953 6.25123 5.98983 6.52532 5.8763C6.79941 5.76277 7.03368 5.57051 7.1985 5.32383C7.36332 5.07716 7.45129 4.78715 7.45129 4.49048C7.45084 4.09279 7.29266 3.71152 7.01145 3.43032C6.73025 3.14911 6.34898 2.99093 5.95129 2.99048ZM5.95129 5.24048C5.80296 5.24048 5.65795 5.19649 5.53462 5.11408C5.41128 5.03167 5.31515 4.91454 5.25838 4.77749C5.20162 4.64045 5.18677 4.48965 5.21571 4.34416C5.24464 4.19867 5.31608 4.06504 5.42096 3.96015C5.52585 3.85526 5.65949 3.78383 5.80498 3.75489C5.95046 3.72595 6.10126 3.7408 6.23831 3.79757C6.37535 3.85433 6.49249 3.95046 6.5749 4.0738C6.65731 4.19714 6.70129 4.34214 6.70129 4.49048C6.70107 4.68932 6.62197 4.87995 6.48137 5.02056C6.34077 5.16116 6.15014 5.24025 5.95129 5.24048Z" fill="#1456F1"/>
<path d="M8.83369 1.60579C8.12102 0.893299 7.16968 0.470051 6.1633 0.417733C5.15692 0.365414 4.16683 0.687734 3.38412 1.32248C2.60141 1.95723 2.08157 2.85942 1.92492 3.85491C1.76828 4.8504 1.98594 5.86863 2.53589 6.71308L5.36965 11.0634C5.43271 11.1602 5.51893 11.2397 5.6205 11.2948C5.72207 11.3498 5.83578 11.3787 5.95131 11.3787C6.06684 11.3787 6.18054 11.3498 6.28211 11.2948C6.38368 11.2397 6.46991 11.1602 6.53297 11.0634L9.36682 6.71308C9.87711 5.92973 10.1026 4.99478 10.0056 4.06493C9.9085 3.13509 9.49476 2.26686 8.83369 1.60579ZM8.73841 6.3037L5.95132 10.5822L3.1642 6.3037C2.31108 4.99403 2.49405 3.24138 3.59927 2.13611C3.90814 1.82723 4.27483 1.58221 4.6784 1.41505C5.08196 1.24788 5.5145 1.16184 5.95132 1.16184C6.38814 1.16184 6.82068 1.24788 7.22424 1.41505C7.62781 1.58221 7.99449 1.82723 8.30337 2.13611C9.40858 3.24138 9.59154 4.99403 8.73841 6.3037Z" fill="#1456F1"/>
</svg>
