<svg width="19" height="20" viewBox="0 0 19 20" fill="none" xmlns="http://www.w3.org/2000/svg">
<path d="M3.84615 5.38462C3.84615 6.8127 4.41346 8.1823 5.42327 9.19211C6.43308 10.2019 7.80268 10.7692 9.23077 10.7692C10.6589 10.7692 12.0285 10.2019 13.0383 9.19211C14.0481 8.1823 14.6154 6.8127 14.6154 5.38462C14.6154 3.95653 14.0481 2.58693 13.0383 1.57712C12.0285 0.567306 10.6589 0 9.23077 0C7.80268 0 6.43308 0.567306 5.42327 1.57712C4.41346 2.58693 3.84615 3.95653 3.84615 5.38462ZM16.9231 20H0.769231C0.565218 20 0.369561 19.919 0.225303 19.7747C0.0810439 19.6304 0 19.4348 0 19.2308V16.9231C0 15.903 0.405219 14.9247 1.12651 14.2034C1.84781 13.4821 2.82609 13.0769 3.84615 13.0769H14.6154C15.6354 13.0769 16.6137 13.4821 17.335 14.2034C18.0563 14.9247 18.4615 15.903 18.4615 16.9231V19.2308C18.4615 19.4348 18.3805 19.6304 18.2362 19.7747C18.092 19.919 17.8963 20 17.6923 20H16.9231Z" fill="#363636"/>
</svg>
