<svg width="17" height="15" viewBox="0 0 17 15" fill="none" xmlns="http://www.w3.org/2000/svg">
<path d="M8.8468 0.120967C8.74625 0.0425735 8.6224 0 8.4949 0C8.3674 0 8.24355 0.0425735 8.143 0.120967L0 6.47047L0.704367 7.36127L1.7 6.58493V13.5997C1.7006 13.9001 1.8202 14.188 2.03261 14.4004C2.24502 14.6128 2.53294 14.7324 2.83333 14.733H14.1667C14.4671 14.7324 14.755 14.6128 14.9674 14.4004C15.1798 14.188 15.2994 13.9001 15.3 13.5997V6.59003L16.2956 7.36637L17 6.47557L8.8468 0.120967ZM9.63333 13.5997H7.36667V9.06637H9.63333V13.5997ZM10.7667 13.5997V9.06637C10.7664 8.76588 10.6469 8.47779 10.4344 8.26531C10.2219 8.05283 9.93382 7.93333 9.63333 7.93303H7.36667C7.06618 7.93333 6.77809 8.05283 6.56561 8.26531C6.35313 8.47779 6.23363 8.76588 6.23333 9.06637V13.5997H2.83333V5.7015L8.5 1.28717L14.1667 5.70717V13.5997H10.7667Z" fill="#7B7C7F"/>
</svg>
