<svg width="21" height="20" viewBox="0 0 21 20" fill="none" xmlns="http://www.w3.org/2000/svg">
<path d="M19.6585 11.1889H9.63269C9.09546 11.1475 8.56354 11.3193 8.15206 11.6672C7.74057 12.015 7.48264 12.511 7.43407 13.0476L7.43324 13.0551C7.4825 13.5988 7.74562 14.1007 8.16477 14.4504C8.58391 14.8002 9.12478 14.9693 9.66851 14.9204L9.66101 14.9213H19.6585C19.7214 14.9271 19.7849 14.9203 19.8452 14.9013C19.9054 14.8822 19.9613 14.8514 20.0095 14.8105C20.0577 14.7696 20.0972 14.7195 20.1258 14.6631C20.1544 14.6068 20.1714 14.5453 20.1759 14.4822V11.6296C20.1596 11.5077 20.0996 11.3958 20.007 11.3148C19.9145 11.2337 19.7957 11.189 19.6727 11.1889H19.6577H19.6585ZM9.63269 14.2198C9.39706 14.2198 9.16672 14.1499 8.9708 14.019C8.77488 13.8881 8.62218 13.702 8.53201 13.4843C8.44183 13.2666 8.41824 13.0271 8.46421 12.796C8.51018 12.5649 8.62365 12.3526 8.79026 12.186C8.95688 12.0194 9.16916 11.9059 9.40026 11.8599C9.63137 11.814 9.87091 11.8376 10.0886 11.9277C10.3063 12.0179 10.4924 12.1706 10.6233 12.3665C10.7542 12.5624 10.8241 12.7928 10.8241 13.0284V13.0317C10.8241 13.6883 10.2917 14.2198 9.63602 14.2198H9.63269ZM2.74524 0V5.33534H3.88495V3.0559C3.99993 3.08423 4.13323 3.10256 4.26986 3.10756H4.27319C4.68502 3.10646 5.07968 2.94243 5.37096 2.6513C5.66225 2.36018 5.82648 1.96561 5.8278 1.55378C5.82504 1.41852 5.80659 1.28405 5.77282 1.15305L5.77532 1.16554H12.0171C11.987 1.29179 11.9697 1.42074 11.9654 1.55045V1.55378C11.9665 1.96561 12.1306 2.36026 12.4217 2.65155C12.7128 2.94283 13.1074 3.10707 13.5192 3.10839C13.6592 3.10339 13.7933 3.08506 13.9216 3.05341L13.9083 3.0559V5.33534H15.0755V0H2.74524ZM15.5662 4.68716H17.0167C16.908 4.37152 16.7176 4.09032 16.4649 3.87225C16.2121 3.65418 15.906 3.50703 15.5779 3.44581L15.5662 3.44414V4.68716Z" fill="#BFBFBF" fill-opacity="0.7"/>
<path d="M9.55678 10.5673H19.5026V7.53723C19.4601 7.08775 19.2426 6.67299 18.8971 6.38234C18.5516 6.0917 18.1057 5.94844 17.6556 5.98345H17.6614H1.86537C1.85192 5.96877 1.83353 5.95957 1.81371 5.95762C1.7042 5.90616 1.61044 5.82634 1.54217 5.72643C1.4739 5.62652 1.43361 5.51016 1.42548 5.38943V5.38776C1.43874 5.23791 1.49747 5.09569 1.59381 4.98015C1.69015 4.8646 1.81949 4.78125 1.96451 4.74126L1.96951 4.74043V3.41992C0.880614 3.47158 0 5.02535 0 6.9682V18.442C0.0429819 18.8909 0.260361 19.3051 0.605424 19.5955C0.950487 19.8859 1.39569 20.0293 1.84537 19.995H1.83954H17.6356C18.0834 20.028 18.5263 19.8847 18.8698 19.5956C19.2134 19.3066 19.4303 18.8947 19.4743 18.4478L19.4751 18.4412V15.4111H9.58428C7.97884 15.4111 6.68333 14.323 6.68333 13.0025C6.68333 11.6562 7.97801 10.5681 9.55762 10.5681L9.55678 10.5673Z" fill="#BFBFBF" fill-opacity="0.7"/>
</svg>
