<svg width="13" height="13" viewBox="0 0 13 13" fill="none" xmlns="http://www.w3.org/2000/svg">
<g clip-path="url(#clip0_1_1518)">
<path fill-rule="evenodd" clip-rule="evenodd" d="M6.5 0C5.93938 0 5.00257 0.215313 4.121 0.455C3.21913 0.69875 2.30994 0.987187 1.77532 1.16188C1.55179 1.23569 1.35362 1.37107 1.20357 1.55244C1.05353 1.73382 0.957688 1.95385 0.927067 2.18725C0.442817 5.82481 1.5665 8.52069 2.92988 10.3041C3.50804 11.067 4.1974 11.7389 4.97494 12.2972C5.28857 12.519 5.57944 12.6888 5.82644 12.805C6.05394 12.9123 6.2985 13 6.5 13C6.7015 13 6.94525 12.9123 7.17357 12.805C7.47133 12.6603 7.7562 12.4904 8.02506 12.2972C8.80262 11.7389 9.49199 11.067 10.0701 10.3041C11.4335 8.52069 12.5572 5.82481 12.0729 2.18725C12.0424 1.95374 11.9466 1.73358 11.7965 1.55206C11.6465 1.37055 11.4483 1.23502 11.2247 1.16106C10.4486 0.906598 9.66647 0.670905 8.879 0.454188C7.99744 0.216125 7.06063 0 6.5 0ZM8.24363 4.18112C8.31991 4.10484 8.42337 4.06199 8.53125 4.06199C8.63913 4.06199 8.74259 4.10484 8.81888 4.18112C8.89516 4.25741 8.93801 4.36087 8.93801 4.46875C8.93801 4.57663 8.89516 4.68009 8.81888 4.75638L6.38138 7.19388C6.34364 7.23171 6.29881 7.26172 6.24945 7.2822C6.2001 7.30268 6.14719 7.31323 6.09375 7.31323C6.04032 7.31323 5.98741 7.30268 5.93805 7.2822C5.88869 7.26172 5.84386 7.23171 5.80613 7.19388L4.58738 5.97513C4.54961 5.93735 4.51964 5.89251 4.4992 5.84316C4.47876 5.79381 4.46824 5.74092 4.46824 5.6875C4.46824 5.63408 4.47876 5.58119 4.4992 5.53184C4.51964 5.48249 4.54961 5.43765 4.58738 5.39987C4.62515 5.3621 4.66999 5.33214 4.71934 5.3117C4.76869 5.29126 4.82159 5.28074 4.875 5.28074C4.92842 5.28074 4.98131 5.29126 5.03066 5.3117C5.08002 5.33214 5.12486 5.3621 5.16263 5.39987L6.09375 6.33181L8.24363 4.18112Z" fill="#6FCF97"/>
</g>
<defs>
<clipPath id="clip0_1_1518">
<rect width="13" height="13" fill="white"/>
</clipPath>
</defs>
</svg>
