<svg width="15" height="12" viewBox="0 0 15 12" fill="none" xmlns="http://www.w3.org/2000/svg">
<path d="M13.5 0H1.5C0.675 0 0.00749999 0.675 0.00749999 1.5L0 10.5C0 11.325 0.675 12 1.5 12H13.5C14.325 12 15 11.325 15 10.5V1.5C15 0.675 14.325 0 13.5 0ZM13.2 3.1875L7.8975 6.5025C7.6575 6.6525 7.3425 6.6525 7.1025 6.5025L1.8 3.1875C1.7248 3.14528 1.65894 3.08825 1.60642 3.01984C1.55389 2.95143 1.5158 2.87308 1.49443 2.78953C1.47307 2.70597 1.46888 2.61895 1.48212 2.53373C1.49536 2.44851 1.52575 2.36686 1.57146 2.29373C1.61717 2.22059 1.67724 2.15749 1.74804 2.10825C1.81885 2.059 1.8989 2.02463 1.98337 2.00722C2.06784 1.98981 2.15496 1.98973 2.23947 2.00696C2.32397 2.0242 2.4041 2.0584 2.475 2.1075L7.5 5.25L12.525 2.1075C12.5959 2.0584 12.676 2.0242 12.7605 2.00696C12.845 1.98973 12.9322 1.98981 13.0166 2.00722C13.1011 2.02463 13.1812 2.059 13.252 2.10825C13.3228 2.15749 13.3828 2.22059 13.4285 2.29373C13.4742 2.36686 13.5046 2.44851 13.5179 2.53373C13.5311 2.61895 13.5269 2.70597 13.5056 2.78953C13.4842 2.87308 13.4461 2.95143 13.3936 3.01984C13.3411 3.08825 13.2752 3.14528 13.2 3.1875Z" fill="#1456F1"/>
</svg>
