<svg width="16" height="18" viewBox="0 0 16 18" fill="none" xmlns="http://www.w3.org/2000/svg">
<path d="M6.18179 2.90908H9.81814C9.81814 2.42687 9.62658 1.96441 9.28561 1.62343C8.94463 1.28246 8.48217 1.0909 7.99996 1.0909C7.51775 1.0909 7.0553 1.28246 6.71432 1.62343C6.37335 1.96441 6.18179 2.42687 6.18179 2.90908ZM5.09089 2.90908C5.09089 2.13754 5.39738 1.39761 5.94294 0.852049C6.48849 0.306491 7.22843 0 7.99996 0C8.7715 0 9.51143 0.306491 10.057 0.852049C10.6026 1.39761 10.909 2.13754 10.909 2.90908H15.4545C15.5991 2.90908 15.7379 2.96654 15.8402 3.06884C15.9425 3.17113 15.9999 3.30987 15.9999 3.45453C15.9999 3.59919 15.9425 3.73793 15.8402 3.84022C15.7379 3.94252 15.5991 3.99998 15.4545 3.99998H14.5018L13.6167 14.6203C13.5523 15.3929 13.1999 16.1131 12.6294 16.638C12.0589 17.163 11.312 17.4544 10.5367 17.4545H5.46325C4.68797 17.4544 3.94103 17.163 3.37053 16.638C2.80004 16.1131 2.44766 15.3929 2.38326 14.6203L1.49818 3.99998H0.545452C0.400789 3.99998 0.262051 3.94252 0.159759 3.84022C0.057467 3.73793 0 3.59919 0 3.45453C0 3.30987 0.057467 3.17113 0.159759 3.06884C0.262051 2.96654 0.400789 2.90908 0.545452 2.90908H5.09089ZM3.47053 14.5294C3.51212 15.0293 3.74007 15.4954 4.10918 15.8351C4.47829 16.1748 4.96159 16.3635 5.46325 16.3636H10.5367C11.0383 16.3635 11.5216 16.1748 11.8907 15.8351C12.2599 15.4954 12.4878 15.0293 12.5294 14.5294L13.4079 3.99998H2.59272L3.47053 14.5294ZM6.36361 6.54543C6.50827 6.54543 6.64701 6.60289 6.7493 6.70518C6.85159 6.80748 6.90906 6.94621 6.90906 7.09088V13.2727C6.90906 13.4173 6.85159 13.5561 6.7493 13.6584C6.64701 13.7607 6.50827 13.8181 6.36361 13.8181C6.21895 13.8181 6.08021 13.7607 5.97792 13.6584C5.87562 13.5561 5.81816 13.4173 5.81816 13.2727V7.09088C5.81816 6.94621 5.87562 6.80748 5.97792 6.70518C6.08021 6.60289 6.21895 6.54543 6.36361 6.54543ZM10.1818 7.09088C10.1818 6.94621 10.1243 6.80748 10.022 6.70518C9.91972 6.60289 9.78098 6.54543 9.63632 6.54543C9.49166 6.54543 9.35292 6.60289 9.25063 6.70518C9.14834 6.80748 9.09087 6.94621 9.09087 7.09088V13.2727C9.09087 13.4173 9.14834 13.5561 9.25063 13.6584C9.35292 13.7607 9.49166 13.8181 9.63632 13.8181C9.78098 13.8181 9.91972 13.7607 10.022 13.6584C10.1243 13.5561 10.1818 13.4173 10.1818 13.2727V7.09088Z" fill="#F05572"/>
</svg>
