<svg width="15" height="15" viewBox="0 0 15 15" fill="none" xmlns="http://www.w3.org/2000/svg">
<g clip-path="url(#clip0_1_3457)">
<path d="M13.3333 11.6666H1.66659V8.88331C1.35627 8.73467 1.07427 8.53304 0.833252 8.28748V11.6666C0.833252 11.8877 0.921049 12.0996 1.07733 12.2559C1.23361 12.4122 1.44557 12.5 1.66659 12.5H13.3333C13.5543 12.5 13.7662 12.4122 13.9225 12.2559C14.0788 12.0996 14.1666 11.8877 14.1666 11.6666V8.28748C13.9273 8.53401 13.6449 8.73455 13.3333 8.87914V11.6666Z" fill="#7B7C7F"/>
<path d="M10.4166 9.33339C10.5271 9.33339 10.6331 9.28949 10.7112 9.21135C10.7894 9.13321 10.8333 9.02723 10.8333 8.91672V6.64172H9.99992V7.50006H5.83325V8.33339H9.99992V8.91672C9.99992 9.02723 10.0438 9.13321 10.122 9.21135C10.2001 9.28949 10.3061 9.33339 10.4166 9.33339Z" fill="#7B7C7F"/>
<path d="M13.7499 2.5H9.99992V1.825C9.99553 1.55829 9.88564 1.30419 9.69431 1.11833C9.50299 0.932467 9.24581 0.829988 8.97908 0.833331H6.02075C5.75403 0.829988 5.49685 0.932467 5.30552 1.11833C5.11419 1.30419 5.00431 1.55829 4.99992 1.825V2.5H1.24992C1.13941 2.5 1.03343 2.5439 0.955291 2.62204C0.877151 2.70018 0.833252 2.80616 0.833252 2.91666V6.25C0.833252 6.80253 1.05275 7.33244 1.44345 7.72314C1.83415 8.11384 2.36405 8.33333 2.91659 8.33333H4.16659V8.91666C4.16659 9.02717 4.21048 9.13315 4.28862 9.21129C4.36676 9.28943 4.47275 9.33333 4.58325 9.33333C4.69376 9.33333 4.79974 9.28943 4.87788 9.21129C4.95602 9.13315 4.99992 9.02717 4.99992 8.91666V6.64166H4.16659V7.5H2.91659C2.58506 7.5 2.26712 7.3683 2.0327 7.13388C1.79828 6.89946 1.66659 6.58152 1.66659 6.25V3.33333H13.3333V6.25C13.3333 6.58152 13.2016 6.89946 12.9671 7.13388C12.7327 7.3683 12.4148 7.5 12.0833 7.5H11.6666V8.33333H12.0833C12.6358 8.33333 13.1657 8.11384 13.5564 7.72314C13.9471 7.33244 14.1666 6.80253 14.1666 6.25V2.91666C14.1666 2.80616 14.1227 2.70018 14.0445 2.62204C13.9664 2.5439 13.8604 2.5 13.7499 2.5ZM9.16659 2.5H5.83325V1.84583C5.8354 1.79756 5.8561 1.75198 5.89103 1.7186C5.92596 1.68522 5.97243 1.66662 6.02075 1.66666H8.98325C9.00678 1.66611 9.03019 1.6702 9.05214 1.6787C9.07409 1.68719 9.09415 1.69993 9.11118 1.71618C9.1282 1.73243 9.14186 1.75188 9.15137 1.77341C9.16087 1.79494 9.16605 1.81813 9.16659 1.84166V2.5Z" fill="#7B7C7F"/>
</g>
<defs>
<clipPath id="clip0_1_3457">
<rect width="15" height="15" fill="white"/>
</clipPath>
</defs>
</svg>
