<svg width="390" height="49" viewBox="0 0 390 49" fill="none" xmlns="http://www.w3.org/2000/svg">
<rect width="390" height="49" fill="white"/>
<path fill-rule="evenodd" clip-rule="evenodd" d="M362.5 27.1429L367.214 24L362.5 20.8571L363.071 20L369.071 24L363.071 28L362.5 27.1429Z" fill="black"/>
<path d="M28.6873 35C27.1386 34.5376 25.736 33.6821 24.6161 32.5169C24.9764 32.0895 25.2011 31.5643 25.2612 31.0085C25.3214 30.4528 25.2144 29.8917 24.9539 29.3971C24.6933 28.9025 24.2912 28.4969 23.7988 28.2322C23.3065 27.9674 22.7463 27.8556 22.1901 27.911C22.0634 27.2903 21.9997 26.6584 22 26.0248C22 25.0463 22.1498 24.1025 22.4288 23.2158H22.4682C22.9456 23.216 23.4152 23.0944 23.8326 22.8627C24.25 22.631 24.6014 22.2967 24.8537 21.8914C25.106 21.4861 25.2509 21.0232 25.2746 20.5463C25.2983 20.0695 25.2001 19.5945 24.9892 19.1662C26.0869 18.1441 27.4144 17.4011 28.8596 17C29.0947 17.4618 29.4531 17.8495 29.895 18.1203C30.3369 18.3911 30.8451 18.5343 31.3633 18.5342C31.8815 18.5343 32.3897 18.3911 32.8316 18.1203C33.2735 17.8495 33.6318 17.4618 33.867 17C35.3122 17.4011 36.6397 18.1441 37.7374 19.1662C37.525 19.5975 37.4268 20.0761 37.4524 20.5563C37.4779 21.0364 37.6262 21.5019 37.8831 21.9083C38.1401 22.3146 38.497 22.6483 38.9198 22.8772C39.3426 23.1061 39.817 23.2227 40.2978 23.2158C40.5828 24.1249 40.7275 25.0721 40.7266 26.0248C40.7266 26.6709 40.6611 27.302 40.5365 27.9115C39.9803 27.8561 39.4201 27.9679 38.9278 28.2326C38.4354 28.4974 38.0333 28.903 37.7727 29.3976C37.5122 29.8922 37.4052 30.4532 37.4654 31.009C37.5255 31.5648 37.7502 32.0899 38.1105 32.5173C36.9905 33.6824 35.5879 34.5378 34.0393 35C33.8575 34.4332 33.5003 33.9388 33.0194 33.588C32.5385 33.2372 31.9586 33.0482 31.3633 33.0482C30.768 33.0482 30.1881 33.2372 29.7072 33.588C29.2263 33.9388 28.8691 34.4332 28.6873 35Z" stroke="#808080" stroke-width="2" stroke-linejoin="round"/>
<path d="M31.3633 29.3019C31.7937 29.3019 32.2198 29.2171 32.6174 29.0524C33.015 28.8877 33.3763 28.6463 33.6806 28.342C33.9849 28.0377 34.2263 27.6764 34.391 27.2788C34.5557 26.8812 34.6405 26.4551 34.6405 26.0247C34.6405 25.5944 34.5557 25.1682 34.391 24.7706C34.2263 24.373 33.9849 24.0117 33.6806 23.7074C33.3763 23.4031 33.015 23.1617 32.6174 22.997C32.2198 22.8323 31.7937 22.7476 31.3633 22.7476C30.4942 22.7476 29.6606 23.0928 29.046 23.7074C28.4315 24.322 28.0862 25.1556 28.0862 26.0247C28.0862 26.8939 28.4315 27.7274 29.046 28.342C29.6606 28.9566 30.4942 29.3019 31.3633 29.3019V29.3019Z" stroke="#808080" stroke-width="2" stroke-linejoin="round"/>
</svg>
