<svg width="20" height="16" viewBox="0 0 20 16" fill="none" xmlns="http://www.w3.org/2000/svg">
<path d="M9.99988 1C6.24249 1 3.43589 3.4404 1.76724 5.43934C0.515085 6.9394 0.515085 9.0606 1.76724 10.5607C3.43589 12.5596 6.24249 15 9.99988 15C13.7573 15 16.5639 12.5596 18.2325 10.5607C19.4847 9.0606 19.4847 6.9394 18.2325 5.43934C16.5639 3.4404 13.7573 1 9.99988 1Z" stroke="black" stroke-opacity="0.4" stroke-width="1.5" stroke-linecap="round" stroke-linejoin="round"/>
<path d="M10 11C11.6569 11 13 9.6569 13 8C13 6.3431 11.6569 5 10 5C8.3431 5 7 6.3431 7 8C7 9.6569 8.3431 11 10 11Z" stroke="black" stroke-opacity="0.4" stroke-width="1.5" stroke-linecap="round" stroke-linejoin="round"/>
</svg>
